<?xml version="1.0" standalone="no"?>
<svg viewBox="0 0 200 200" xmlns="http://www.w3.org/2000/svg">
  <path fill="#FA4D56" d="M41,-72.8C52.3,-64.5,60,-51.8,68.3,-38.9C76.7,-26.1,85.6,-13,86.6,0.6C87.7,14.2,80.8,28.4,70.6,38.2C60.5,48,47.2,53.4,34.9,57.7C22.6,62,11.3,65.3,-1.7,68.1C-14.6,71,-29.2,73.5,-42.3,69.6C-55.4,65.8,-67,55.6,-72.1,42.9C-77.1,30.2,-75.7,15.1,-75.6,0C-75.6,-15.1,-76.9,-30.1,-72.7,-44.2C-68.4,-58.3,-58.7,-71.5,-45.6,-78.8C-32.6,-86.1,-16.3,-87.5,-0.7,-86.3C14.9,-85,29.7,-81.1,41,-72.8Z" transform="translate(100 100)" />
</svg>
