<?xml version="1.0" standalone="no"?>
<svg viewBox="0 0 200 200" xmlns="http://www.w3.org/2000/svg">
  <path fill="#FF0066" d="M40.1,-71C52.9,-62.1,64.9,-53.2,73,-41.4C81.1,-29.6,85.3,-14.8,85.4,0.1C85.5,14.9,81.5,29.9,73,41C64.5,52.1,51.5,59.3,38.6,63C25.6,66.8,12.8,66.9,0.7,65.7C-11.4,64.4,-22.8,61.8,-36.2,58.3C-49.6,54.9,-65.1,50.7,-76,40.9C-86.9,31,-93.3,15.5,-90.4,1.6C-87.6,-12.3,-75.7,-24.5,-65,-34.8C-54.3,-45.1,-45,-53.4,-34.4,-63.6C-23.7,-73.8,-11.9,-85.8,0.9,-87.4C13.6,-88.9,27.3,-79.9,40.1,-71Z" transform="translate(100 100)" />
</svg>
