<?xml version="1.0" standalone="no"?>
<svg viewBox="0 0 200 200" xmlns="http://www.w3.org/2000/svg">
  <path fill="#9EF0F0" d="M36.6,-58.5C51,-55.1,68.8,-52.5,74.6,-42.9C80.5,-33.3,74.5,-16.6,73.2,-0.8C71.9,15.1,75.2,30.2,69.1,39.4C63,48.6,47.4,51.9,34.3,57.3C21.3,62.7,10.6,70.1,-0.6,71.2C-11.9,72.3,-23.8,67.1,-37.7,62.2C-51.7,57.3,-67.6,52.8,-78,42.5C-88.4,32.1,-93.2,16.1,-92.3,0.5C-91.3,-15,-84.6,-30,-73.7,-39.5C-62.9,-49,-47.9,-53.1,-35,-57.3C-22,-61.5,-11,-65.9,0.1,-66C11.1,-66.1,22.2,-61.9,36.6,-58.5Z" transform="translate(100 100)" />
</svg>
