<?xml version="1.0" standalone="no"?>
<svg viewBox="0 0 200 200" xmlns="http://www.w3.org/2000/svg">
  <path fill="#FFD6E8" d="M44,-74.2C55.6,-69.4,62.7,-54.9,67.7,-40.9C72.7,-26.9,75.5,-13.4,72.9,-1.5C70.4,10.5,62.4,21,56,32.4C49.5,43.8,44.5,56.1,35.4,66.7C26.3,77.2,13.2,86.1,-0.9,87.7C-15,89.3,-30,83.7,-41.5,74.4C-52.9,65.2,-60.8,52.4,-67,39.4C-73.2,26.4,-77.8,13.2,-78.5,-0.4C-79.2,-14,-76,-28,-68.6,-38.9C-61.2,-49.8,-49.4,-57.6,-37.3,-62.1C-25.2,-66.6,-12.6,-67.9,1.8,-71C16.2,-74.1,32.3,-79,44,-74.2Z" transform="translate(100 100)" />
</svg>
